<?xml version="1.0" encoding="UTF-8" standalone="no"?><!DOCTYPE svg PUBLIC "-//W3C//DTD SVG 1.1//EN" "http://www.w3.org/Graphics/SVG/1.1/DTD/svg11.dtd"><svg width="100%" height="100%" viewBox="0 0 1288 300" version="1.1" xmlns="http://www.w3.org/2000/svg" xmlns:xlink="http://www.w3.org/1999/xlink" xml:space="preserve" xmlns:serif="http://www.serif.com/" style="fill-rule:evenodd;clip-rule:evenodd;stroke-linejoin:round;stroke-miterlimit:2;"><g id="Layer_2"><path d="M286.008,265.249l78.725,-52.322l-89.077,-154.29c-1.55,-2.66 -3.253,-5.189 -5.113,-7.588l15.464,214.2Z" style="fill:#dc4b28;fill-rule:nonzero;"/><path d="M195.072,27.844l-13.038,176.211c14.3,-24.788 34.35,-59.524 34.35,-59.524l0.016,-0.054l-17.009,-117.895c-1.463,0.37 -2.894,0.794 -4.319,1.262" style="fill:#dc4b28;fill-rule:nonzero;"/><path d="M394.944,265.243l-19.675,-34.073l-4.178,34.073l23.852,0Z" style="fill:#dc4b28;fill-rule:nonzero;"/><path d="M165.666,46.909c-3.242,3.557 -6.125,7.485 -8.589,11.733c0,0 -0.196,0.343 -0.566,0.99c-5.581,9.666 -50.924,88.206 -83.904,145.364l32.686,60.237l80.792,-233.723c-7.675,3.791 -14.621,9.008 -20.42,15.399" style="fill:#fdb714;fill-rule:nonzero;"/><path d="M105.288,265.227l-32.686,-60.237c-19.566,33.893 -34.78,60.253 -34.78,60.253l67.471,0l-0.005,-0.016Z" style="fill:#dc4b28;fill-rule:nonzero;"/><g><g><g><g><clipPath id="_clip1"><path d="M188.697,30.297c-0.881,0.386 -1.752,0.789 -2.616,1.218l-80.787,233.723l0.005,0.005l41.4,0c0,0 17.553,-30.396 35.335,-61.194l13.038,-176.206c-2.17,0.707 -4.297,1.523 -6.375,2.453"/></clipPath><g clip-path="url(#_clip1)"><rect x="105.293" y="27.844" width="89.778" height="237.4" style="fill:url(#_Linear2);"/></g></g></g></g></g><g><g><g><g><clipPath id="_clip3"><path d="M199.391,26.576l17.009,117.889l13.8,23.977l31.603,-126.729c-12.369,-10.966 -28.514,-17.297 -45.447,-17.297c-5.782,0.005 -11.477,0.745 -16.966,2.159"/></clipPath><g clip-path="url(#_clip3)"><rect x="199.391" y="24.422" width="62.412" height="144.026" style="fill:url(#_Linear4);"/></g></g></g></g></g><path d="M270.544,51.048c-2.611,-3.367 -5.505,-6.457 -8.654,-9.253c-0.027,-0.027 -0.06,-0.049 -0.087,-0.087l-31.603,126.734c22.568,39.099 51.615,89.544 55.798,96.801l-15.454,-214.195Z" style="fill:#fdb714;fill-rule:nonzero;"/><rect x="411.99" y="186.861" width="70.633" height="18.378" style="fill-rule:nonzero;"/><path d="M549.934,265.243c-8.857,0 -17.603,-0.775 -26.238,-2.325c-8.635,-1.55 -15.684,-3.653 -21.146,-6.31l0,-20.371c14.171,6.643 29.449,9.964 45.834,9.964c23.028,0 34.542,-7.75 34.542,-23.249c0,-5.314 -1.255,-9.595 -3.764,-12.842c-2.509,-3.247 -6.126,-6.089 -10.85,-8.525c-4.724,-2.436 -12.4,-5.794 -23.028,-10.075c-14.614,-5.905 -25.168,-12.4 -31.663,-19.485c-6.495,-7.085 -9.742,-16.016 -9.742,-26.792c0,-8.119 2.214,-15.315 6.643,-21.588c4.428,-6.274 10.628,-11.145 18.599,-14.614c7.971,-3.469 17.123,-5.203 27.456,-5.203c8.414,0 16.016,0.664 22.806,1.993c6.79,1.329 13.433,3.469 19.928,6.421l0,19.485c-12.842,-5.757 -25.832,-8.635 -38.97,-8.635c-10.628,0 -18.747,1.919 -24.356,5.757c-5.609,3.838 -8.414,9.3 -8.414,16.385c0,4.871 1.218,8.968 3.653,12.289c2.436,3.321 6.052,6.274 10.85,8.857c4.797,2.583 11.92,5.794 21.367,9.632c10.481,4.281 18.747,8.34 24.799,12.178c6.052,3.838 10.665,8.525 13.839,14.06c3.174,5.536 4.761,12.436 4.761,20.703c0,13.433 -4.797,23.84 -14.392,31.22c-9.595,7.381 -23.766,11.071 -42.513,11.071Z" style="fill-rule:nonzero;"/><path d="M678.579,107.15l21.699,0l61.776,154.773l-23.028,0l-15.499,-38.527l-68.419,0l-15.057,38.527l-23.249,0l61.776,-154.773Zm38.749,97.425l-27.899,-72.404l-27.899,72.404l55.798,0Z" style="fill-rule:nonzero;"/><path d="M786.411,107.15l59.562,0c16.68,-0 29.855,4.17 39.523,12.51c9.669,8.34 14.503,20.186 14.503,35.538c0,15.647 -4.797,27.493 -14.392,35.538c-9.595,8.045 -22.806,12.067 -39.634,12.067l-36.977,0l0,59.119l-22.585,0l0,-154.773Zm57.126,76.833c10.333,-0 18.525,-2.14 24.578,-6.421c6.052,-4.281 9.078,-11.735 9.078,-22.363c0,-10.628 -3.026,-18.12 -9.078,-22.474c-6.052,-4.355 -14.245,-6.532 -24.578,-6.532l-34.542,0l0,57.791l34.542,0Z" style="fill-rule:nonzero;"/><path d="M375.275,231.176l-10.542,-18.249l-78.736,52.317l85.1,0l4.178,-34.067Z" style="fill:#fdb714;fill-rule:nonzero;"/></g><defs><linearGradient id="_Linear2" x1="0" y1="0" x2="1" y2="0" gradientUnits="userSpaceOnUse" gradientTransform="matrix(106.292455,0,0,106.292455,97.723244,146.570751)"><stop offset="0" style="stop-color:#dc4b28;stop-opacity:1"/><stop offset="1" style="stop-color:#fdb714;stop-opacity:1"/></linearGradient><linearGradient id="_Linear4" x1="0" y1="0" x2="1" y2="0" gradientUnits="userSpaceOnUse" gradientTransform="matrix(77.047208,0,0,77.047208,195.267418,96.402627)"><stop offset="0" style="stop-color:#dc4b28;stop-opacity:1"/><stop offset="1" style="stop-color:#fdb714;stop-opacity:1"/></linearGradient></defs></svg>