<?xml version="1.0" encoding="UTF-8" standalone="no"?>
<!DOCTYPE svg PUBLIC "-//W3C//DTD SVG 1.1//EN" "http://www.w3.org/Graphics/SVG/1.1/DTD/svg11.dtd">
<svg width="100%" height="100%" viewBox="0 0 100 72" version="1.1" xmlns="http://www.w3.org/2000/svg" xmlns:xlink="http://www.w3.org/1999/xlink" xml:space="preserve" xmlns:serif="http://www.serif.com/" style="fill-rule:evenodd;clip-rule:evenodd;stroke-linejoin:round;stroke-miterlimit:2;">
    <g id="Layer_2" transform="matrix(1.30547,0,0,1.30547,-94.1553,-180.018)">
        <g>
            <path d="M124.704,186.659L139.177,177.04L122.801,148.675C122.516,148.186 122.203,147.721 121.861,147.28L124.704,186.659Z" style="fill:rgb(220,75,40);fill-rule:nonzero;"/>
            <path d="M107.986,143.014L105.589,175.409C108.218,170.852 111.904,164.466 111.904,164.466L111.907,164.456L108.78,142.782C108.511,142.85 108.248,142.928 107.986,143.014" style="fill:rgb(220,75,40);fill-rule:nonzero;"/>
            <path d="M144.731,186.658L141.114,180.394L140.346,186.658L144.731,186.658Z" style="fill:rgb(220,75,40);fill-rule:nonzero;"/>
            <path d="M102.58,146.519C101.984,147.173 101.454,147.895 101.001,148.676C101.001,148.676 100.965,148.739 100.897,148.858C99.871,150.635 91.535,165.074 85.472,175.582L91.481,186.656L106.334,143.688C104.923,144.385 103.646,145.344 102.58,146.519" style="fill:rgb(253,183,20);fill-rule:nonzero;"/>
            <path d="M91.48,186.655L85.471,175.581C81.874,181.812 79.077,186.658 79.077,186.658L91.481,186.658L91.48,186.655Z" style="fill:rgb(220,75,40);fill-rule:nonzero;"/>
        </g>
        <g>
            <g>
                <g>
                    <g>
                        <clipPath id="_clip1">
                            <path d="M106.814,143.465C106.652,143.536 106.492,143.61 106.333,143.689L91.481,186.657L91.482,186.658L99.093,186.658C99.093,186.658 102.32,181.07 105.589,175.408L107.986,143.014C107.587,143.144 107.196,143.294 106.814,143.465"/>
                        </clipPath>
                        <g clip-path="url(#_clip1)">
                            <rect x="91.481" y="143.014" width="16.505" height="43.644" style="fill:url(#_Linear2);"/>
                        </g>
                    </g>
                </g>
            </g>
        </g>
        <g>
            <g>
                <g>
                    <g>
                        <clipPath id="_clip3">
                            <path d="M108.78,142.781L111.907,164.454L114.444,168.862L120.254,145.564C117.98,143.548 115.012,142.384 111.899,142.384C110.836,142.385 109.789,142.521 108.78,142.781"/>
                        </clipPath>
                        <g clip-path="url(#_clip3)">
                            <rect x="108.78" y="142.385" width="11.474" height="26.478" style="fill:url(#_Linear4);"/>
                        </g>
                    </g>
                </g>
            </g>
        </g>
        <g>
            <path d="M121.861,147.28C121.381,146.661 120.849,146.093 120.27,145.579C120.265,145.574 120.259,145.57 120.254,145.563L114.444,168.862C118.593,176.05 123.933,185.324 124.702,186.658L121.861,147.28Z" style="fill:rgb(253,183,20);fill-rule:nonzero;"/>
            <path d="M164.275,171.072C165.378,169.159 165.922,168.22 166.189,167.676C166.18,167.711 166.149,167.825 166.149,167.825C166.241,167.669 166.414,167.568 166.597,167.568C166.773,167.568 166.946,167.669 167.036,167.825L177.878,186.642L183.94,186.642L171.177,164.496C170.233,162.865 168.478,161.853 166.599,161.853C164.711,161.853 162.96,162.865 162.018,164.496C162.014,164.501 152.662,180.601 149.153,186.642L155.219,186.642C156.656,184.198 158.997,180.219 164.275,171.072" style="fill-rule:nonzero;"/>
            <path d="M141.115,180.395L139.177,177.04L124.702,186.658L140.347,186.658L141.115,180.395Z" style="fill:rgb(253,183,20);fill-rule:nonzero;"/>
        </g>
    </g>
    <defs>
        <linearGradient id="_Linear2" x1="0" y1="0" x2="1" y2="0" gradientUnits="userSpaceOnUse" gradientTransform="matrix(19.541,0,0,19.541,90.0893,164.841)"><stop offset="0" style="stop-color:rgb(220,75,40);stop-opacity:1"/><stop offset="1" style="stop-color:rgb(253,183,20);stop-opacity:1"/></linearGradient>
        <linearGradient id="_Linear4" x1="0" y1="0" x2="1" y2="0" gradientUnits="userSpaceOnUse" gradientTransform="matrix(14.1645,0,0,14.1645,108.022,155.618)"><stop offset="0" style="stop-color:rgb(220,75,40);stop-opacity:1"/><stop offset="1" style="stop-color:rgb(253,183,20);stop-opacity:1"/></linearGradient>
    </defs>
</svg>
